<svg xmlns="http://www.w3.org/2000/svg" width="70" height="112.175" viewBox="0 0 70 112.175"><defs><style>.a{fill:#fff;}</style></defs><g transform="translate(-278.58 -416.618)"><g transform="translate(284.571 416.618)"><rect class="a" width="24.367" height="24.367" transform="translate(0 33.504)"/><rect class="a" width="24.367" height="24.367" transform="translate(33.504 33.504)"/><rect class="a" width="57.871" height="24.367"/></g><g transform="translate(278.58 487.31)"><g transform="translate(5.878)"><path class="a" d="M290.1,486.862H284.05v-4.454h17.51v4.454h-6.076v17.93H290.1Z" transform="translate(-284.05 -482.408)"/><path class="a" d="M303.454,494.262V482.408h5.355v12.427c0,4.242,1.264,5.745,3.732,5.745,2.436,0,3.79-1.5,3.79-5.745V482.408h5.176v11.854c0,7.553-3.009,10.952-8.966,10.952C306.554,505.214,303.454,501.815,303.454,494.262Z" transform="translate(-282.604 -482.408)"/><path class="a" d="M322.942,501.093l3.671-2.739a3.519,3.519,0,0,0,3.009,2.226c1.745,0,2.678-.871,2.678-3.79V482.408h5.387v14.8c0,4.392-2.318,8-7.341,8A7.817,7.817,0,0,1,322.942,501.093Z" transform="translate(-281.152 -482.408)"/></g><g transform="translate(0 30.422)"><path class="a" d="M278.58,513.248h1l.869,3.373c.118.558.237,1.084.344,1.631h.055c.128-.547.246-1.084.4-1.631l.9-3.373h.955l.913,3.373c.14.558.269,1.084.408,1.631h.043c.128-.547.236-1.073.364-1.631l.86-3.373h.923l-1.568,5.831h-1.181l-.849-3.146c-.149-.548-.258-1.085-.4-1.675h-.054c-.129.59-.247,1.138-.4,1.7l-.817,3.125H280.2Z" transform="translate(-278.58 -510.532)"/><path class="a" d="M286.839,516.18a2.821,2.821,0,0,1,2.631-3.072c1.482,0,2.32,1.073,2.32,2.738a3.84,3.84,0,0,1-.043.56h-3.931a1.932,1.932,0,0,0,1.933,2.039,2.519,2.519,0,0,0,1.46-.461l.355.644a3.472,3.472,0,0,1-1.933.6A2.787,2.787,0,0,1,286.839,516.18Zm4.093-.474c0-1.18-.537-1.814-1.451-1.814a1.793,1.793,0,0,0-1.675,1.814Z" transform="translate(-277.965 -510.542)"/><path class="a" d="M293.692,518.666h-.032l-.086.6h-.784V510.72h.978v2.34l-.032,1.053a2.934,2.934,0,0,1,1.826-.827c1.514,0,2.331,1.181,2.331,2.964,0,2.008-1.193,3.158-2.535,3.158A2.582,2.582,0,0,1,293.692,518.666Zm3.178-2.394c0-1.288-.429-2.159-1.535-2.159a2.408,2.408,0,0,0-1.568.8v3.061a2.233,2.233,0,0,0,1.428.611C296.161,518.591,296.87,517.721,296.87,516.272Z" transform="translate(-277.521 -510.72)"/><path class="a" d="M300.8,516.18a2.839,2.839,0,0,1,2.814-3.072,2.489,2.489,0,0,1,1.706.688l-.5.654a1.693,1.693,0,0,0-1.171-.525c-1.052,0-1.826.912-1.826,2.255s.731,2.233,1.8,2.233a2.061,2.061,0,0,0,1.375-.579l.418.654a2.777,2.777,0,0,1-1.879.741A2.742,2.742,0,0,1,300.8,516.18Z" transform="translate(-276.924 -510.542)"/><path class="a" d="M305.89,516.18a2.725,2.725,0,1,1,2.706,3.049A2.8,2.8,0,0,1,305.89,516.18Zm4.4,0c0-1.343-.687-2.255-1.7-2.255s-1.686.912-1.686,2.255.677,2.233,1.686,2.233S310.292,517.522,310.292,516.18Z" transform="translate(-276.545 -510.542)"/><path class="a" d="M312.359,513.258h.806l.086.849h.031a2.564,2.564,0,0,1,1.816-1,1.538,1.538,0,0,1,1.611,1.116,2.759,2.759,0,0,1,1.922-1.116c1.2,0,1.772.8,1.772,2.288v3.694h-.977v-3.566c0-1.094-.344-1.557-1.085-1.557a2.157,2.157,0,0,0-1.471.892v4.231h-.978v-3.566c0-1.094-.343-1.557-1.084-1.557a2.155,2.155,0,0,0-1.471.892v4.231h-.978Z" transform="translate(-276.063 -510.542)"/><path class="a" d="M321.619,513.258h.806l.086.666h.031a3.112,3.112,0,0,1,1.859-.817c1.5,0,2.32,1.181,2.32,2.975,0,2-1.193,3.146-2.536,3.146a2.64,2.64,0,0,1-1.611-.676l.023,1.02v1.976h-.978Zm4.081,2.836c0-1.288-.43-2.159-1.535-2.159a2.431,2.431,0,0,0-1.568.8V517.8a2.255,2.255,0,0,0,1.428.611C324.991,518.413,325.7,517.544,325.7,516.094Z" transform="translate(-275.373 -510.542)"/><path class="a" d="M327.479,517.576c0-1.267,1.106-1.9,3.587-2.18,0-.752-.246-1.471-1.2-1.471a3.21,3.21,0,0,0-1.75.622l-.387-.677a4.393,4.393,0,0,1,2.3-.762c1.418,0,2.019.956,2.019,2.4v3.587h-.8l-.086-.7h-.032a3.123,3.123,0,0,1-1.933.838A1.581,1.581,0,0,1,327.479,517.576Zm3.587.1V516.04c-1.965.236-2.63.719-2.63,1.471,0,.665.451.934,1.03.934A2.38,2.38,0,0,0,331.066,517.671Z" transform="translate(-274.937 -510.542)"/><path class="a" d="M333.459,513.258h.806l.086.837h.031a2.8,2.8,0,0,1,1.955-.987c1.225,0,1.784.8,1.784,2.288v3.694h-.978v-3.566c0-1.094-.333-1.557-1.106-1.557a2.221,2.221,0,0,0-1.6.892v4.231h-.978Z" transform="translate(-274.491 -510.542)"/><path class="a" d="M339.037,521.474l.193-.784a1.388,1.388,0,0,0,.441.1c.665,0,1.084-.537,1.322-1.257l.128-.44-2.341-5.842H339.8l1.193,3.244c.171.5.375,1.106.558,1.631h.054c.16-.525.332-1.116.494-1.631l1.041-3.244h.955l-2.2,6.315c-.407,1.149-1.009,2.03-2.168,2.03A1.8,1.8,0,0,1,339.037,521.474Z" transform="translate(-274.095 -510.532)"/></g></g></g></svg>