<svg xmlns="http://www.w3.org/2000/svg" width="131.505" height="47.115" viewBox="0 0 131.505 47.115"><defs><style>.a{fill:#951e32;}</style></defs><rect class="a" width="17.983" height="17.983" transform="translate(0 24.73)"/><rect class="a" width="17.983" height="17.983" transform="translate(24.73 24.73)"/><rect class="a" width="42.712" height="17.983"/><path class="a" d="M49.979,5.051H43.11V0H63V5.051H56.091V25.413h-6.1Z" transform="translate(9.485)"/><path class="a" d="M62.52,13.42V0h6.1V14.1c0,4.819,1.44,6.527,4.233,6.527S77.16,18.922,77.16,14.1V0h5.88V13.42c0,8.54-3.416,12.432-10.187,12.432S62.52,22.033,62.52,13.42Z" transform="translate(13.755)"/><path class="a" d="M82,21.216,86.16,18.1a3.989,3.989,0,0,0,3.416,2.525c1.976,0,3.038-.988,3.038-4.307V0h6.1V16.812c0,4.978-2.635,9.077-8.345,9.077A8.869,8.869,0,0,1,82,21.216Z" transform="translate(18.041)"/><path class="a" d="M42.57,30.84H43.7l.988,3.855c.134.634.268,1.22.39,1.854h0c.146-.622.281-1.22.451-1.854l1.025-3.831h1.086l1.1,3.831.451,1.83h0c.146-.622.268-1.22.415-1.854l.976-3.831h1.049l-1.781,6.625H48.511l-.964-3.575c-.171-.622-.293-1.22-.451-1.9h0c-.146.671-.281,1.293-.451,1.928l-.927,3.55H44.412Z" transform="translate(9.366 6.785)"/><path class="a" d="M50.832,34.189A3.209,3.209,0,0,1,53.821,30.7c1.684,0,2.635,1.22,2.635,3.111a4.333,4.333,0,0,1,0,.634H51.943a2.2,2.2,0,0,0,2.2,2.318,2.855,2.855,0,0,0,1.659-.525l.4.732a3.941,3.941,0,0,1-2.2.683,3.172,3.172,0,0,1-3.172-3.465Zm4.648-.537c0-1.342-.61-2.062-1.647-2.062a2.037,2.037,0,0,0-1.9,2.062Z" transform="translate(11.181 6.754)"/><path class="a" d="M57.8,37.347h0l-.1.683H56.81V28.27h1.11v3.88a3.343,3.343,0,0,1,2.074-.939c1.72,0,2.647,1.342,2.647,3.367,0,2.281-1.354,3.587-2.879,3.587a2.94,2.94,0,0,1-1.964-.817Zm3.66-2.721c0-1.464-.488-2.44-1.745-2.44a2.733,2.733,0,0,0-1.781.915v3.477a2.538,2.538,0,0,0,1.623.7c1.049-.012,1.854-1,1.854-2.647Z" transform="translate(12.499 6.22)"/><path class="a" d="M64.794,34.189a3.221,3.221,0,0,1,3.2-3.489,2.83,2.83,0,0,1,1.94.781l-.573.744a1.928,1.928,0,0,0-1.33-.6c-1.22,0-2.074,1.037-2.074,2.562s.83,2.538,2.05,2.538a2.33,2.33,0,0,0,1.562-.659l.476.744a3.16,3.16,0,0,1-2.135.842,3.111,3.111,0,0,1-3.111-3.465Z" transform="translate(14.251 6.754)"/><path class="a" d="M69.889,34.218a3.1,3.1,0,1,1,6.1,0,3.1,3.1,0,1,1-6.1,0Zm5,0c0-1.525-.781-2.562-1.928-2.562s-1.915,1.037-1.915,2.562.769,2.538,1.915,2.538,1.952-1.013,1.952-2.538Z" transform="translate(15.365 6.726)"/><path class="a" d="M76.352,30.872h.915l.1.964h0A2.916,2.916,0,0,1,79.427,30.7a1.745,1.745,0,0,1,1.83,1.22A3.135,3.135,0,0,1,83.44,30.7c1.366,0,2.013.9,2.013,2.6v4.2h-1.11V33.507c0-1.22-.39-1.769-1.22-1.769a2.44,2.44,0,0,0-1.671,1.013v4.807h-1.11v-4.05c0-1.22-.39-1.769-1.22-1.769a2.44,2.44,0,0,0-1.671,1.013v4.807H76.34Z" transform="translate(16.795 6.753)"/><path class="a" d="M85.621,30.871h.915l.1.756h0a3.538,3.538,0,0,1,2.111-.927c1.708,0,2.635,1.342,2.635,3.379,0,2.269-1.354,3.575-2.879,3.575a2.989,2.989,0,0,1-1.83-.769v3.392H85.56Zm4.636,3.221c0-1.464-.488-2.44-1.745-2.44a2.757,2.757,0,0,0-1.781.915v3.477a2.562,2.562,0,0,0,1.623.7C89.452,36.727,90.257,35.739,90.257,34.092Z" transform="translate(18.824 6.754)"/><path class="a" d="M91.471,35.769c0-1.44,1.22-2.159,4.075-2.44,0-.854-.281-1.671-1.366-1.671a3.66,3.66,0,0,0-1.989.708l-.439-.769a4.978,4.978,0,0,1,2.611-.866c1.61,0,2.294,1.086,2.294,2.721v4.075h-.878l-.1-.793h0a3.55,3.55,0,0,1-2.2.952,1.793,1.793,0,0,1-2.013-1.915Zm4.075.11V34.024c-2.233.268-2.989.817-2.989,1.671s.512,1.061,1.22,1.061a2.708,2.708,0,0,0,1.769-.817Z" transform="translate(20.123 6.761)"/><path class="a" d="M97.45,30.871h.915l.1.952h0a3.172,3.172,0,0,1,2.22-1.122c1.391,0,2.025.9,2.025,2.6v4.2H101.6V33.506c0-1.22-.378-1.769-1.22-1.769A2.525,2.525,0,0,0,98.56,32.75v4.807H97.45Z" transform="translate(21.44 6.754)"/><path class="a" d="M103.053,40.185l.22-.891a1.586,1.586,0,0,0,.5.11c.756,0,1.22-.61,1.5-1.427l.146-.5-2.66-6.637h1.22l1.354,3.66.634,1.854h.061c.183-.6.378-1.22.561-1.854l1.22-3.66H108.9l-2.44,7.174c-.464,1.305-1.147,2.306-2.44,2.306a2.037,2.037,0,0,1-.964-.134Z" transform="translate(22.608 6.785)"/></svg>